<svg xmlns="http://www.w3.org/2000/svg" width="37" height="50" viewBox="0 0 37 50">
    <g fill="#4069CF" fill-rule="nonzero">
        <path d="M35.248 7.03l-2.33-.013h-.005l-.012.001v-1.55a.781.781 0 0 0-.782-.781h-2.343V3.125a.781.781 0 0 0-.781-.781H9.548A2.54 2.54 0 0 0 7.018 0 2.54 2.54 0 0 0 4.49 2.343H.873a.781.781 0 0 0-.781.782v39.839c0 .431.35.781.78.781h1.563v2.344c0 .431.35.78.781.78H4.78v2.344c0 .432.35.781.78.781h29.685c.431 0 .781-.35.781-.78V7.811a.78.78 0 0 0-.777-.781zM7.018 1.563c.472 0 .866.336.956.781h-1.91a.976.976 0 0 1 .955-.78zm-5.364 40.62V3.907h2.828V9.56a2.54 2.54 0 0 0 2.537 2.537 2.54 2.54 0 0 0 2.537-2.537V6.05a.781.781 0 1 0-1.562 0v3.512a.976.976 0 0 1-1.95 0V3.906h22.17v38.277H1.653zm2.343 3.126v-1.563h24.998c.431 0 .78-.35.78-.78V6.248h1.563v39.059H3.998zm2.344 3.124V46.87h25.778c.432 0 .782-.35.782-.781V8.579h.008l1.554.01v39.843H6.34z"/>
        <path d="M20.402 17.186H9.466a.781.781 0 1 0 0 1.562h10.936a.781.781 0 1 0 0-1.562zM20.402 20.31H9.466a.781.781 0 1 0 0 1.563h10.936a.781.781 0 1 0 0-1.563zM17.277 23.435H12.59a.781.781 0 1 0 0 1.562h4.687a.781.781 0 1 0 0-1.562z"/>
    </g>
</svg>
