<svg xmlns="http://www.w3.org/2000/svg" width="15" height="13" viewBox="0 0 15 13">
    <g fill="#4069CF" fill-rule="nonzero">
        <path d="M12.69 1.079C11.295.383 9.452 0 7.5 0 5.547 0 3.704.383 2.31 1.079.82 1.823 0 2.847 0 3.963 0 5.08.82 6.104 2.31 6.848c1.394.696 3.237 1.079 5.19 1.079 1.953 0 3.796-.383 5.19-1.079C14.18 6.104 15 5.08 15 3.963c0-1.116-.82-2.14-2.31-2.884z"/>
        <path d="M13.082 7.656C11.57 8.414 9.587 8.83 7.5 8.83c-2.087 0-4.07-.417-5.582-1.175C1.114 7.253.47 6.77 0 6.22v1.998c0 1.12.82 2.148 2.31 2.895 1.394.698 3.237 1.082 5.19 1.082 1.953 0 3.796-.384 5.19-1.082C14.18 10.366 15 9.338 15 8.218V6.22c-.47.55-1.114 1.033-1.918 1.436z"/>
    </g>
</svg>
