<svg xmlns="http://www.w3.org/2000/svg" width="30" height="30" viewBox="0 0 30 30">
    <g fill="none" fill-rule="evenodd">
        <rect width="28" height="28" x="1" y="1" stroke="#4069CF" stroke-width="2" rx="14"/>
        <path fill="#4069CF" fill-rule="nonzero" d="M15.822 12.983c.317 0 .55.253.55.549v5.176h.485c.296 0 .55.253.55.57v1.14c0 .318-.254.55-.55.55h-3.253a.545.545 0 0 1-.55-.55v-1.14c0-.317.254-.55.55-.55h.443v-3.506h-.443a.545.545 0 0 1-.55-.55v-1.14c0-.317.254-.55.55-.55zm-.527-3.971c.057.001.118.006.189.02.084.021.169.042.253.085.085.042.148.084.233.126.084.064.148.106.211.17l.042.042c.106.105.19.232.254.38.042.105.063.19.084.274.021.085.021.19.021.275v.09a.878.878 0 0 1-.02.185c-.022.084-.043.19-.085.274-.021.021-.021.021-.021.043-.021.084-.064.147-.106.21-.042.064-.084.128-.148.191l-.02.021a1.367 1.367 0 0 1-.191.17c-.085.062-.17.105-.254.147h-.02c-.064.042-.149.063-.233.084-.085.022-.19.022-.275.022-.084 0-.169 0-.274-.022a1.046 1.046 0 0 1-.275-.084c-.106-.021-.19-.085-.253-.127-.085-.063-.148-.127-.212-.19l-.148-.19a2.304 2.304 0 0 1-.126-.232c-.022-.085-.064-.17-.085-.338-.021-.085-.021-.19-.021-.275 0-.085 0-.17.021-.275.021-.084.042-.169.085-.253.042-.085.084-.17.126-.233.043-.063.106-.126.17-.19.063-.063.126-.105.21-.169.064-.042.149-.084.233-.126h.021c.085-.043.17-.064.254-.085.084-.021.19-.021.274-.021z"/>
    </g>
</svg>
