<svg xmlns="http://www.w3.org/2000/svg" width="20" height="20" viewBox="0 0 20 20">
    <g fill="#EABE4E" fill-rule="nonzero">
        <path d="M4.14 12.93C1.804 12.93 0 13.937 0 15.273c0 1.337 1.803 2.344 4.14 2.344 2.339 0 4.102-1.007 4.102-2.344 0-1.336-1.763-2.343-4.101-2.343z"/>
        <path d="M0 17.534v.083C0 18.953 1.803 20 4.14 20c2.339 0 4.102-1.047 4.102-2.383v-.083c-.943.774-2.38 1.255-4.101 1.255-1.722 0-3.198-.48-4.141-1.255zM4.727 11.794V8.242H4.14A1.76 1.76 0 0 0 2.383 10v1.952a8.301 8.301 0 0 1 1.758-.194c.202 0 .39.023.586.036zM7.07 8.242H5.898v3.71c.419.09.815.202 1.172.353V8.242zM8.242 13.013c.73.6 1.172 1.371 1.172 2.26v-7.03H8.242v4.77zM19.88.23a.585.585 0 0 0-.466-.23h-2.941a.586.586 0 0 0-.557.405L13.4 8.242h-2.815v7.031h3.25c1.263 0 2.38-.805 2.788-2.035L19.98.74a.584.584 0 0 0-.1-.509z"/>
    </g>
</svg>
