<svg xmlns="http://www.w3.org/2000/svg" width="17" height="12" viewBox="0 0 17 12">
    <path fill="#000" fill-rule="nonzero" d="M16.978 4.59a18.123 18.123 0 0 0-.08-1.278 11.485 11.485 0 0 0-.204-1.38 2.17 2.17 0 0 0-.66-1.152 2.032 2.032 0 0 0-1.18-.543C13.452.08 11.332.003 8.495.003c-2.838 0-4.958.078-6.361.234-.449.05-.84.23-1.176.543A2.182 2.182 0 0 0 .303 1.93 10.24 10.24 0 0 0 .09 3.312c-.047.515-.074.94-.08 1.278-.007.337-.01.805-.01 1.404 0 .599.003 1.067.01 1.404.006.337.033.763.08 1.278s.115.975.204 1.38c.101.456.32.84.659 1.152.338.312.731.493 1.18.543 1.403.156 3.523.234 6.36.234 2.839 0 4.959-.078 6.362-.234.448-.05.84-.231 1.175-.543.335-.312.553-.696.654-1.151.095-.406.166-.866.214-1.381.047-.515.074-.941.08-1.278.006-.337.01-.805.01-1.404 0-.6-.004-1.067-.01-1.404zM11.85 6.5L6.996 9.494a.545.545 0 0 1-.322.093.662.662 0 0 1-.294-.075.556.556 0 0 1-.313-.524V3c0-.238.104-.412.313-.525a.577.577 0 0 1 .616.02l4.854 2.994c.19.106.284.275.284.506 0 .23-.095.4-.284.505z"/>
</svg>
