<svg xmlns="http://www.w3.org/2000/svg" width="224" height="38" viewBox="0 0 224 38">
    <g fill="#FFF" fill-rule="nonzero">
        <path d="M10.26 3.6H7.04c-.067 1.267-.137 2.41-.21 3.43a33.732 33.732 0 0 1-.3 2.75 13.18 13.18 0 0 1-.51 2.17 7.057 7.057 0 0 1-.8 1.67 3.389 3.389 0 0 1-1.52 1.23c-.28.113-.553.193-.82.24-.267.047-.513.07-.74.07-.347 0-.617-.027-.81-.08a3.984 3.984 0 0 1-.63-.24l.32-2.48c.147.053.32.08.52.08a1.571 1.571 0 0 0 1.28-.68c.213-.293.403-.713.57-1.26.167-.547.307-1.257.42-2.13.113-.873.207-1.917.28-3.13A98.24 98.24 0 0 0 4.24 1h8.98v14h-2.96V3.6zm15.38 11.7c-.84 0-1.557-.107-2.15-.32-.593-.213-1.087-.517-1.48-.91a3.796 3.796 0 0 1-.89-1.43 7.803 7.803 0 0 1-.4-1.88h-1.96V15h-2.8V4.5h2.8v3.92h2c.16-1.347.627-2.387 1.4-3.12.773-.733 1.947-1.1 3.52-1.1.867 0 1.61.137 2.23.41a4.02 4.02 0 0 1 1.53 1.15c.4.493.697 1.08.89 1.76.193.68.29 1.427.29 2.24 0 1.733-.41 3.09-1.23 4.07-.82.98-2.07 1.47-3.75 1.47zM23.4 9.76c0 1 .163 1.783.49 2.35.327.567.917.85 1.77.85.36 0 .67-.057.93-.17.26-.113.477-.297.65-.55.173-.253.3-.583.38-.99.08-.407.12-.903.12-1.49 0-1.067-.153-1.87-.46-2.41-.307-.54-.88-.81-1.72-.81-.72 0-1.26.247-1.62.74-.36.493-.54 1.32-.54 2.48zm11.36-3.04c.453-.6.977-1.04 1.57-1.32.593-.28 1.31-.42 2.15-.42 1.373 0 2.46.373 3.26 1.12.8.747 1.2 1.92 1.2 3.52 0 1.867-.457 3.28-1.37 4.24-.913.96-2.21 1.44-3.89 1.44-1.76 0-3.097-.533-4.01-1.6-.913-1.067-1.37-2.727-1.37-4.98 0-1.2.077-2.217.23-3.05.153-.833.367-1.527.64-2.08.273-.553.603-.987.99-1.3a4.304 4.304 0 0 1 1.29-.72 6.84 6.84 0 0 1 1.53-.34c.547-.06 1.12-.117 1.72-.17.76-.067 1.417-.143 1.97-.23.553-.087.977-.237 1.27-.45l.1 2.42c-.307.227-.733.377-1.28.45a37.45 37.45 0 0 1-2.28.21c-.587.04-1.107.087-1.56.14a2.84 2.84 0 0 0-1.18.39c-.333.207-.6.523-.8.95-.2.427-.347 1.027-.44 1.8h.18l.08-.02zm.42 3.26c0 .427.05.82.15 1.18.1.36.25.673.45.94.2.267.453.477.76.63.307.153.667.23 1.08.23.88 0 1.507-.26 1.88-.78s.56-1.247.56-2.18c0-.88-.177-1.547-.53-2-.353-.453-.943-.68-1.77-.68-.88 0-1.53.237-1.95.71-.42.473-.63 1.123-.63 1.95zm17 .28l.12-1.78-1.26 1.76L46.9 15h-1.68V4.5h2.8v4.94l-.1 1.44h.24c.16-.227.323-.467.49-.72.167-.253.33-.493.49-.72L53.3 4.5h1.68V15h-2.8v-4.74zm13.84-3.28h-3.26V15h-2.92V6.98h-3.26V4.5h9.44v2.48zm10.58 7.06c-.453.347-1.07.643-1.85.89a8.28 8.28 0 0 1-2.51.37c-1.8 0-3.12-.493-3.96-1.48-.84-.987-1.26-2.34-1.26-4.06 0-1.827.473-3.21 1.42-4.15.947-.94 2.28-1.41 4-1.41.56 0 1.113.07 1.66.21a4.01 4.01 0 0 1 1.46.7c.427.327.77.767 1.03 1.32s.39 1.237.39 2.05a9.298 9.298 0 0 1-.22 1.96h-7c.067.907.33 1.577.79 2.01.46.433 1.21.65 2.25.65.627 0 1.19-.09 1.69-.27.5-.18.883-.363 1.15-.55l.96 1.76zM72.4 6.4c-.827 0-1.44.223-1.84.67-.4.447-.633 1.017-.7 1.71h4.52c.053-.733-.08-1.313-.4-1.74-.32-.427-.847-.64-1.58-.64zm13.4.58h-2.46a34.548 34.548 0 0 1-.25 3.16c-.127.987-.33 1.85-.61 2.59-.28.74-.65 1.323-1.11 1.75-.46.427-1.05.64-1.77.64-.84 0-1.433-.093-1.78-.28l.4-2.48c.227.067.433.1.62.1.32 0 .6-.113.84-.34.24-.227.44-.637.6-1.23.16-.593.29-1.403.39-2.43.1-1.027.177-2.347.23-3.96h7.7V15h-2.8V6.98zm8.48 5.68c.253.053.5.09.74.11.24.02.467.03.68.03 1.493 0 2.24-.48 2.24-1.44 0-.893-.72-1.34-2.16-1.34-.547 0-1.047.06-1.5.18v2.46zm0-4.4c.4-.067.807-.113 1.22-.14.413-.027.76-.04 1.04-.04.773 0 1.433.083 1.98.25.547.167.99.397 1.33.69.34.293.587.64.74 1.04.153.4.23.827.23 1.28 0 .627-.1 1.177-.3 1.65-.2.473-.513.87-.94 1.19-.427.32-.983.56-1.67.72-.687.16-1.517.24-2.49.24-.84 0-1.573-.01-2.2-.03-.627-.02-1.207-.05-1.74-.09V4.5h2.8v3.76zm16.38 6.1c-.453.307-.997.54-1.63.7-.633.16-1.29.24-1.97.24-.907 0-1.67-.133-2.29-.4a3.85 3.85 0 0 1-1.52-1.14 4.611 4.611 0 0 1-.85-1.75 9.029 9.029 0 0 1-.26-2.25c0-1.747.43-3.11 1.29-4.09.86-.98 2.11-1.47 3.75-1.47.8 0 1.457.063 1.97.19.513.127.97.29 1.37.49l-.68 2.24a5.761 5.761 0 0 0-1.03-.33 5.695 5.695 0 0 0-1.19-.11c-.84 0-1.483.243-1.93.73-.447.487-.67 1.27-.67 2.35 0 .427.053.823.16 1.19.107.367.273.69.5.97.227.28.513.5.86.66.347.16.753.24 1.22.24.56 0 1.003-.05 1.33-.15.327-.1.637-.237.93-.41l.64 2.1zm5.86-3.72h-.98V15h-2.8V4.5h2.8v4.54l.9-.38 2.68-4.16h3.02a92.59 92.59 0 0 0-1.37 1.93c-.447.647-.897 1.29-1.35 1.93l-1.32.88 1.4.86c.507.827 1.02 1.643 1.54 2.45.52.807 1.033 1.623 1.54 2.45h-3.24l-2.82-4.36zm14.46-.38l.12-1.78-1.26 1.76L125.7 15h-1.68V4.5h2.8v4.94l-.1 1.44h.24c.16-.227.323-.467.49-.72.167-.253.33-.493.49-.72l4.16-4.94h1.68V15h-2.8v-4.74zm12.64 0l.12-1.78-1.26 1.76-4.14 4.76h-1.68V4.5h2.8v4.94l-.1 1.44h.24c.16-.227.323-.467.49-.72.167-.253.33-.493.49-.72l4.16-4.94h1.68V15h-2.8v-4.74zm-3.36-9.5c.107.56.293.94.56 1.14.267.2.613.3 1.04.3.44 0 .79-.103 1.05-.31.26-.207.443-.577.55-1.11l2.08.54c-.173.88-.607 1.54-1.3 1.98-.693.44-1.52.66-2.48.66-.467 0-.91-.047-1.33-.14a3.713 3.713 0 0 1-1.15-.46 3.158 3.158 0 0 1-.89-.82c-.247-.333-.417-.74-.51-1.22l2.38-.56zm16.96 8.86l-3.44-5.12h3.4l1.42 2.04-.02-.02.82 1.86.8-1.86-.02.02 1.52-2.04h3.08l-3.46 5.04L165 15h-3.32l-1.7-2.36.02.02-.84-1.84-.88 1.84.02-.02-1.72 2.36h-3.08l3.72-5.38zm8.74.14c0-1.733.46-3.093 1.38-4.08.92-.987 2.233-1.48 3.94-1.48.893 0 1.673.14 2.34.42.667.28 1.22.67 1.66 1.17.44.5.77 1.087.99 1.76.22.673.33 1.41.33 2.21 0 .853-.12 1.623-.36 2.31a4.831 4.831 0 0 1-1.04 1.75c-.453.48-1.01.847-1.67 1.1-.66.253-1.41.38-2.25.38-.907 0-1.693-.14-2.36-.42a4.485 4.485 0 0 1-1.66-1.17 4.842 4.842 0 0 1-.98-1.76 7.215 7.215 0 0 1-.32-2.19zm2.88 0c0 .44.047.853.14 1.24.093.387.237.723.43 1.01.193.287.443.517.75.69.307.173.68.26 1.12.26 1.627 0 2.44-1.067 2.44-3.2 0-.467-.043-.897-.13-1.29a2.934 2.934 0 0 0-.42-1.02 1.995 1.995 0 0 0-.76-.67c-.313-.16-.69-.24-1.13-.24-.76 0-1.357.253-1.79.76-.433.507-.65 1.327-.65 2.46zm13.82.88h-.98V15h-2.8V4.5h2.8v4.54l.9-.38 2.68-4.16h3.02a92.59 92.59 0 0 0-1.37 1.93c-.447.647-.897 1.29-1.35 1.93l-1.32.88 1.4.86c.507.827 1.02 1.643 1.54 2.45.52.807 1.033 1.623 1.54 2.45h-3.24l-2.82-4.36zm11.28 0h-.98V15h-2.8V4.5h2.8v4.54l.9-.38 2.68-4.16h3.02a92.59 92.59 0 0 0-1.37 1.93c-.447.647-.897 1.29-1.35 1.93l-1.32.88 1.4.86c.507.827 1.02 1.643 1.54 2.45.52.807 1.033 1.623 1.54 2.45h-3.24l-2.82-4.36zm16.48 3.4c-.453.347-1.07.643-1.85.89a8.28 8.28 0 0 1-2.51.37c-1.8 0-3.12-.493-3.96-1.48-.84-.987-1.26-2.34-1.26-4.06 0-1.827.473-3.21 1.42-4.15.947-.94 2.28-1.41 4-1.41.56 0 1.113.07 1.66.21a4.01 4.01 0 0 1 1.46.7c.427.327.77.767 1.03 1.32s.39 1.237.39 2.05a9.298 9.298 0 0 1-.22 1.96h-7c.067.907.33 1.577.79 2.01.46.433 1.21.65 2.25.65.627 0 1.19-.09 1.69-.27.5-.18.883-.363 1.15-.55l.96 1.76zm-4.2-7.64c-.827 0-1.44.223-1.84.67-.4.447-.633 1.017-.7 1.71h4.52c.053-.733-.08-1.313-.4-1.74-.32-.427-.847-.64-1.58-.64zm14.06 3.86l.12-1.78-1.26 1.76L215 15h-1.68V4.5h2.8v4.94l-.1 1.44h.24c.16-.227.323-.467.49-.72.167-.253.33-.493.49-.72l4.16-4.94h1.68V15h-2.8v-4.74zm-3.36-9.5c.107.56.293.94.56 1.14.267.2.613.3 1.04.3.44 0 .79-.103 1.05-.31.26-.207.443-.577.55-1.11l2.08.54c-.173.88-.607 1.54-1.3 1.98-.693.44-1.52.66-2.48.66-.467 0-.91-.047-1.33-.14a3.713 3.713 0 0 1-1.15-.46 3.158 3.158 0 0 1-.89-.82c-.247-.333-.417-.74-.51-1.22l2.38-.56zM7.63 32.21H3.113L2.087 35h-.882l3.767-9.953h.8L9.537 35h-.875l-1.032-2.79zm-4.258-.717h3.992l-1.996-5.42-1.996 5.42zm13.125-3.89V35h-.82v-6.692h-3.029l-.13 2.768c-.054 1.026-.157 1.808-.307 2.348-.15.54-.374.938-.67 1.193-.296.255-.69.383-1.183.383h-.314v-.725l.253-.013c.47-.01.807-.237 1.012-.684.205-.446.34-1.244.403-2.392l.15-3.582h4.635zm7.506.698H21.31V35h-.82v-6.7h-2.592v-.696h6.105v.697zM30.012 35c-.082-.232-.135-.576-.158-1.032a2.853 2.853 0 0 1-1.097.865 3.36 3.36 0 0 1-1.411.304c-.711 0-1.287-.199-1.726-.595-.44-.396-.66-.898-.66-1.504 0-.72.3-1.29.899-1.709.6-.42 1.434-.629 2.505-.629h1.484v-.84c0-.53-.163-.945-.49-1.248-.325-.303-.8-.455-1.424-.455-.57 0-1.042.146-1.415.438-.374.291-.561.642-.561 1.052l-.82-.006c0-.588.273-1.098.82-1.528.547-.43 1.22-.646 2.017-.646.824 0 1.475.206 1.951.618.477.413.721.988.735 1.727v3.5c0 .715.075 1.25.226 1.606V35h-.875zm-2.57-.588c.546 0 1.035-.132 1.466-.396.43-.265.744-.618.94-1.06V31.33h-1.463c-.816.01-1.454.158-1.914.448-.46.29-.69.687-.69 1.193 0 .414.153.759.46 1.032.308.273.708.41 1.2.41zm10.26-6.808h.82V35h-.82v-6.077L33.71 35h-.814v-7.396h.814v6.084l3.992-6.084zm-.04-2.666c0 .524-.18.947-.537 1.271-.358.324-.838.485-1.44.485-.592 0-1.07-.16-1.432-.482-.362-.32-.543-.746-.543-1.274h.697c0 .378.113.667.339.868.225.2.539.3.94.3.4 0 .714-.104.94-.314.225-.21.338-.494.338-.855h.697zm5.782 9.508c.57 0 1.047-.16 1.432-.482.386-.32.594-.737.626-1.247h.786a2.316 2.316 0 0 1-.424 1.234c-.26.371-.605.662-1.035.871-.431.21-.892.315-1.385.315-.97 0-1.74-.338-2.307-1.012-.567-.674-.85-1.581-.85-2.72v-.247c0-.729.127-1.374.382-1.934.255-.56.62-.994 1.097-1.3.476-.305 1.033-.457 1.672-.457.81 0 1.48.241 2.006.724.526.483.808 1.12.844 1.908h-.786c-.037-.58-.245-1.046-.626-1.402-.38-.355-.86-.533-1.438-.533-.739 0-1.312.267-1.72.8-.408.533-.612 1.28-.612 2.242v.24c0 .943.204 1.679.612 2.207.408.529.983.793 1.726.793zm6.488-2.837h-1.135V35h-.827v-7.396h.827v3.28h1.121l2.714-3.28h1.032l-3.035 3.588L53.999 35h-1.08l-2.987-3.39zm10.103-4.005h.82V35h-.82v-6.077L56.043 35h-.814v-7.396h.814v6.084l3.992-6.084zm5.018 4.005h-1.135V35h-.827v-7.396h.827v3.28h1.121l2.714-3.28h1.032l-3.035 3.588L69.12 35h-1.08l-2.987-3.39zm10.657 0h-1.135V35h-.827v-7.396h.827v3.28h1.121l2.714-3.28h1.032l-3.035 3.588L79.777 35h-1.08l-2.987-3.39zm11.19-.232c0 1.153-.255 2.068-.765 2.745-.51.676-1.194 1.015-2.051 1.015-1.012 0-1.786-.356-2.324-1.067v3.774h-.814v-10.24h.76l.04 1.045c.533-.788 1.306-1.182 2.317-1.182.885 0 1.578.335 2.082 1.005.504.67.755 1.6.755 2.789v.116zm-.82-.144c0-.943-.194-1.688-.581-2.235-.387-.547-.927-.82-1.62-.82-.501 0-.932.12-1.292.362s-.636.592-.827 1.053v3.548c.196.423.476.747.84.97.365.224.796.335 1.293.335.688 0 1.224-.274 1.61-.823.385-.55.577-1.346.577-2.39zM93.38 35c-.081-.232-.134-.576-.156-1.032a2.853 2.853 0 0 1-1.098.865 3.36 3.36 0 0 1-1.411.304c-.711 0-1.286-.199-1.726-.595-.44-.396-.66-.898-.66-1.504 0-.72.3-1.29.899-1.709.6-.42 1.434-.629 2.505-.629h1.484v-.84c0-.53-.163-.945-.489-1.248-.326-.303-.8-.455-1.425-.455-.57 0-1.042.146-1.415.438-.374.291-.56.642-.56 1.052l-.821-.006c0-.588.273-1.098.82-1.528.547-.43 1.22-.646 2.017-.646.825 0 1.475.206 1.951.618.477.413.722.988.735 1.727v3.5c0 .715.075 1.25.226 1.606V35h-.875zm-2.57-.588c.547 0 1.036-.132 1.467-.396.43-.265.744-.618.94-1.06V31.33h-1.463c-.816.01-1.454.158-1.914.448-.46.29-.69.687-.69 1.193 0 .414.153.759.46 1.032.308.273.708.41 1.2.41zm10.261-6.808h.82V35h-.82v-6.077L97.08 35h-.813v-7.396h.813v6.084l3.992-6.084zm-.04-2.666c0 .524-.18.947-.537 1.271-.358.324-.838.485-1.44.485-.592 0-1.07-.16-1.431-.482-.363-.32-.544-.746-.544-1.274h.697c0 .378.113.667.339.868.225.2.539.3.94.3.4 0 .714-.104.94-.314.225-.21.338-.494.338-.855h.697zm2.877 11.921l-.485-.355c.415-.556.629-1.133.642-1.73v-1.06h.8v.855c0 .948-.319 1.712-.957 2.29zm10.863-8.551h-3.74V35h-.82v-7.396h4.56v.704zm1.216 6.2a.58.58 0 0 1 .154-.407.551.551 0 0 1 .427-.167c.183 0 .326.055.431.167a.573.573 0 0 1 .157.407c0 .16-.052.29-.157.393a.59.59 0 0 1-.43.154c-.183 0-.325-.052-.428-.154a.532.532 0 0 1-.154-.393zm12.968-8.743h-5.154v3.602h2.468c.679 0 1.266.113 1.763.339.497.225.876.549 1.138.97.262.422.393.92.393 1.494 0 .88-.293 1.571-.881 2.075-.588.503-1.402.755-2.44.755h-3.289v-9.953h6.002v.718zm-5.154 4.32v4.204h2.46c.77 0 1.372-.19 1.805-.57.433-.381.65-.902.65-1.563 0-.629-.21-1.129-.63-1.5-.418-.372-1.006-.562-1.763-.571h-2.522zM136.263 35c-.082-.232-.135-.576-.158-1.032a2.853 2.853 0 0 1-1.097.865 3.36 3.36 0 0 1-1.411.304c-.711 0-1.287-.199-1.726-.595-.44-.396-.66-.898-.66-1.504 0-.72.3-1.29.899-1.709.6-.42 1.434-.629 2.505-.629h1.484v-.84c0-.53-.163-.945-.49-1.248-.325-.303-.8-.455-1.424-.455-.57 0-1.042.146-1.415.438-.374.291-.561.642-.561 1.052l-.82-.006c0-.588.273-1.098.82-1.528.547-.43 1.22-.646 2.017-.646.824 0 1.475.206 1.951.618.476.413.721.988.735 1.727v3.5c0 .715.075 1.25.226 1.606V35h-.875zm-2.57-.588c.546 0 1.035-.132 1.466-.396.43-.265.744-.618.94-1.06V31.33h-1.463c-.816.01-1.454.158-1.914.448-.46.29-.69.687-.69 1.193 0 .414.153.759.46 1.032.308.273.708.41 1.2.41zm11.347-3.035c0 1.153-.255 2.068-.766 2.745-.51.676-1.194 1.015-2.05 1.015-1.012 0-1.787-.356-2.325-1.067v3.774h-.813v-10.24h.759l.04 1.045c.534-.788 1.306-1.182 2.318-1.182.884 0 1.578.335 2.082 1.005.503.67.755 1.6.755 2.789v.116zm-.82-.144c0-.943-.194-1.688-.581-2.235-.388-.547-.928-.82-1.62-.82-.502 0-.932.12-1.292.362s-.636.592-.828 1.053v3.548c.196.423.477.747.841.97.365.224.795.335 1.292.335.688 0 1.225-.274 1.61-.823.385-.55.578-1.346.578-2.39zM152.532 35h-.82v-3.39h-3.985V35h-.82v-7.396h.82v3.315h3.985v-3.315h.82V35zm6.857 0c-.082-.232-.135-.576-.158-1.032a2.853 2.853 0 0 1-1.097.865 3.36 3.36 0 0 1-1.411.304c-.711 0-1.287-.199-1.726-.595-.44-.396-.66-.898-.66-1.504 0-.72.3-1.29.899-1.709.6-.42 1.434-.629 2.505-.629h1.484v-.84c0-.53-.163-.945-.49-1.248-.325-.303-.8-.455-1.424-.455-.57 0-1.042.146-1.415.438-.374.291-.561.642-.561 1.052l-.82-.006c0-.588.273-1.098.82-1.528.547-.43 1.219-.646 2.017-.646.824 0 1.475.206 1.951.618.476.413.721.988.735 1.727v3.5c0 .715.075 1.25.226 1.606V35h-.875zm-2.57-.588c.546 0 1.035-.132 1.466-.396.43-.265.744-.618.94-1.06V31.33h-1.463c-.816.01-1.454.158-1.914.448-.46.29-.69.687-.69 1.193 0 .414.153.759.46 1.032.308.273.708.41 1.2.41zm7.744-.588l2.16-6.22h.882l-3.158 8.654-.164.383c-.405.897-1.032 1.346-1.88 1.346-.196 0-.405-.032-.629-.095l-.006-.677.423.04c.401 0 .726-.098.975-.297.248-.198.459-.538.632-1.021l.362-.999-2.789-7.334h.896l2.296 6.22zm9.995-6.22V35h-.82v-6.692h-3.029l-.13 2.768c-.055 1.026-.157 1.808-.308 2.348-.15.54-.373.938-.67 1.193-.296.255-.69.383-1.182.383h-.315v-.725l.253-.013c.47-.01.807-.237 1.012-.684.205-.446.34-1.244.403-2.392l.15-3.582h4.636z"/>
    </g>
</svg>
