<svg xmlns="http://www.w3.org/2000/svg" width="47" height="30" viewBox="0 0 47 30">
    <path fill="#4069CF" fill-rule="nonzero" d="M35.765.264c5.896 0 10.43 4.778 10.43 10.673 0 10.476-8.272 18.993-18.741 18.994-1.475 0-2.424-1.196-2.424-2.67a2.663 2.663 0 0 1 2.662-2.67c3.206 0 6.135-1.119 8.467-2.976-.059.001-.148.009-.207.009-5.898 0-10.742-4.782-10.742-10.68S29.867.264 35.765.264zm-25.015 0c5.896 0 10.445 4.778 10.445 10.673 0 10.476-8.287 18.993-18.756 18.994C.964 29.931 0 28.735 0 27.261a2.664 2.664 0 0 1 2.663-2.67c3.206 0 6.136-1.119 8.468-2.976-.059.001-.146.009-.205.009-5.899 0-10.739-4.782-10.739-10.68S4.852.264 10.75.264z"/>
</svg>
